<svg xmlns:xlink="http://www.w3.org/1999/xlink" xmlns="http://www.w3.org/2000/svg" width="24" height="24" viewBox="0 0 24 24" fill="none">
<path d="M19.8463 5.59483C19.8463 4.79719 19.1999 4.15314 18.4052 4.15314C17.6105 4.15314 16.9635 4.79719 16.9635 5.59483C16.9635 6.38952 17.6105 7.03357 18.4052 7.03357C19.1999 7.03357 19.8463 6.38952 19.8463 5.59483Z" fill="url(#paint0_linear_820_1415)"/>
<path d="M21.7666 16.8485C21.7132 18.0186 21.5175 18.6543 21.355 19.0765C21.1368 19.6364 20.8764 20.0367 20.4542 20.4566C20.0367 20.8765 19.6364 21.1362 19.0765 21.3521C18.6543 21.5169 18.0162 21.7132 16.8461 21.769C15.5811 21.8247 15.2063 21.8366 11.9985 21.8366C8.79372 21.8366 8.41592 21.8247 7.15095 21.769C5.9809 21.7132 5.34574 21.5169 4.92346 21.3521C4.36068 21.1362 3.96335 20.8765 3.54347 20.4566C3.12061 20.0367 2.86028 19.6364 2.64501 19.0765C2.48248 18.6543 2.28384 18.0186 2.2334 16.8485C2.17175 15.5835 2.16046 15.2028 2.16046 12.0015C2.16046 8.79372 2.17175 8.41592 2.2334 7.15095C2.28384 5.9809 2.48248 5.34574 2.64501 4.91991C2.86028 4.36068 3.12061 3.96273 3.54347 3.54285C3.96335 3.1236 4.36068 2.86322 4.92346 2.64501C5.34574 2.47955 5.9809 2.2862 7.15095 2.23047C8.41592 2.17469 8.79372 2.16046 11.9985 2.16046C15.2063 2.16046 15.5811 2.17469 16.8461 2.23047C18.0162 2.2862 18.6543 2.47955 19.0765 2.64501C19.6364 2.86322 20.0367 3.1236 20.4542 3.54285C20.8764 3.96273 21.1368 4.36068 21.355 4.91991C21.5175 5.34574 21.7132 5.9809 21.7666 7.15095C21.8253 8.41592 21.8395 8.79372 21.8395 12.0015C21.8395 15.2028 21.8253 15.5835 21.7666 16.8485ZM23.9271 7.05252C23.8684 5.7739 23.6667 4.90034 23.3672 4.13949C23.0624 3.35013 22.6538 2.68117 21.9849 2.01221C21.3189 1.34623 20.6499 0.93761 19.8606 0.62924C19.0967 0.332702 18.2261 0.128678 16.9469 0.0729466C15.6677 0.0112549 15.2591 0 11.9985 0C8.74092 0 8.32936 0.0112549 7.05016 0.0729466C5.77389 0.128678 4.90389 0.332702 4.1365 0.62924C3.35012 0.93761 2.68117 1.34623 2.01519 2.01221C1.34623 2.68117 0.937608 3.35013 0.629816 4.13949C0.333278 4.90034 0.131656 5.7739 0.0699647 7.05252C0.0142331 8.33172 0 8.74093 0 12.0015C0 15.2591 0.0142331 15.6677 0.0699647 16.9469C0.131656 18.2232 0.333278 19.0961 0.629816 19.8606C0.937608 20.6469 1.34623 21.3189 2.01519 21.9849C2.68117 22.6508 3.35012 23.0624 4.1365 23.3702C4.90389 23.6667 5.77389 23.8684 7.05016 23.9271C8.32936 23.9858 8.74092 24 11.9985 24C15.2591 24 15.6677 23.9858 16.9469 23.9271C18.2261 23.8684 19.0967 23.6667 19.8606 23.3702C20.6499 23.0624 21.3189 22.6508 21.9849 21.9849C22.6538 21.3189 23.0624 20.6469 23.3672 19.8606C23.6667 19.0961 23.8684 18.2232 23.9271 16.9469C23.9858 15.6677 24 15.2591 24 12.0015C24 8.74093 23.9858 8.33172 23.9271 7.05252Z" fill="url(#paint1_linear_820_1415)"/>
<path d="M11.9985 15.998C9.79061 15.998 7.99902 14.2094 7.99902 12.0015C7.99902 9.79 9.79061 7.99903 11.9985 7.99903C14.2071 7.99903 16.001 9.79 16.001 12.0015C16.001 14.2094 14.2071 15.998 11.9985 15.998ZM11.9985 5.83559C8.59503 5.83559 5.83856 8.59797 5.83856 12.0015C5.83856 15.402 8.59503 18.1615 11.9985 18.1615C15.402 18.1615 18.1615 15.402 18.1615 12.0015C18.1615 8.59797 15.402 5.83559 11.9985 5.83559Z" fill="url(#paint2_linear_820_1415)"/>
<defs>
<linearGradient id="paint0_linear_820_1415" x1="-139.422" y1="-139.299" x2="42.09" y2="42.0607" gradientUnits="userSpaceOnUse">
<stop stop-color="#FFD521"/>
<stop offset="0.05" stop-color="#FFD521"/>
<stop offset="0.501119" stop-color="#F50000"/>
<stop offset="0.95" stop-color="#B900B4"/>
<stop offset="0.950079" stop-color="#B900B4"/>
<stop offset="1" stop-color="#B900B4"/>
</linearGradient>
<linearGradient id="paint1_linear_820_1415" x1="0.216477" y1="0.218256" x2="22.019" y2="22.0207" gradientUnits="userSpaceOnUse">
<stop stop-color="#FFD521"/>
<stop offset="0.05" stop-color="#FFD521"/>
<stop offset="0.501119" stop-color="#F50000"/>
<stop offset="0.95" stop-color="#B900B4"/>
<stop offset="0.950079" stop-color="#B900B4"/>
<stop offset="1" stop-color="#B900B4"/>
</linearGradient>
<linearGradient id="paint2_linear_820_1415" x1="0.222103" y1="23.7824" x2="22.0193" y2="1.98512" gradientUnits="userSpaceOnUse">
<stop stop-color="#FFD521"/>
<stop offset="0.05" stop-color="#FFD521"/>
<stop offset="0.501119" stop-color="#F50000"/>
<stop offset="0.95" stop-color="#B900B4"/>
<stop offset="0.950079" stop-color="#B900B4"/>
<stop offset="1" stop-color="#B900B4"/>
</linearGradient>
</defs>
</svg>