<svg xmlns:xlink="http://www.w3.org/1999/xlink" xmlns="http://www.w3.org/2000/svg" width="24" height="24" viewBox="0 0 24 24" fill="none">
<path d="M11.9995 24C18.6269 24 23.9995 18.6274 23.9995 12C23.9995 5.37258 18.6269 0 11.9995 0C5.37209 0 -0.000488281 5.37258 -0.000488281 12C-0.000488281 18.6274 5.37209 24 11.9995 24Z" fill="white"/>
<path d="M12.0094 0C5.37676 0 -0.000488281 5.36842 -0.000488281 11.9901C-0.000488281 17.0724 3.1626 21.4145 7.63047 23.1612C7.52174 22.2138 7.43277 20.7533 7.67 19.7171C7.88747 18.7796 9.07363 13.7566 9.07363 13.7566C9.07363 13.7566 8.71778 13.0362 8.71778 11.9803C8.71778 10.3125 9.68647 9.06908 10.8924 9.06908C11.9204 9.06908 12.4146 9.83882 12.4146 10.7566C12.4146 11.7829 11.7623 13.3224 11.4163 14.7533C11.1296 15.9474 12.0193 16.9243 13.1955 16.9243C15.3306 16.9243 16.9715 14.6743 16.9715 11.4375C16.9715 8.56579 14.9056 6.5625 11.9501 6.5625C8.52997 6.5625 6.52339 9.11842 6.52339 11.7632C6.52339 12.7895 6.91877 13.8947 7.413 14.4967C7.51185 14.6151 7.52174 14.7237 7.49208 14.8421C7.40312 15.2171 7.19554 16.0362 7.156 16.2039C7.10658 16.4211 6.97808 16.4704 6.75073 16.3618C5.24826 15.6612 4.30922 13.4803 4.30922 11.7138C4.30922 7.93421 7.05716 4.46053 12.2466 4.46053C16.408 4.46053 19.6502 7.42105 19.6502 11.3882C19.6502 15.523 17.0407 18.8487 13.4229 18.8487C12.2071 18.8487 11.0604 18.2171 10.6749 17.4671C10.6749 17.4671 10.072 19.7566 9.92371 20.3191C9.65682 21.3651 8.92536 22.6678 8.43112 23.4671C9.55798 23.8125 10.7441 24 11.9896 24C18.6222 24 23.9995 18.6316 23.9995 12.0099C24.0192 5.36842 18.642 0 12.0094 0Z" fill="#E60019"/>
</svg>