<svg xmlns:xlink="http://www.w3.org/1999/xlink" xmlns="http://www.w3.org/2000/svg" width="24" height="24" viewBox="0 0 24 24" fill="none">
<g clip-path="url(#clip0_607_3144)">
<path d="M17.2073 8.64516C18.7537 9.74998 20.648 10.4 22.694 10.4V6.46494C22.3068 6.46502 21.9206 6.42467 21.5418 6.34445V9.44193C19.4959 9.44193 17.6018 8.79187 16.0551 7.68713V15.7175C16.0551 19.7347 12.7968 22.9911 8.7778 22.9911C7.27821 22.9911 5.8844 22.538 4.72656 21.7608C6.04804 23.1113 7.89095 23.9491 9.9298 23.9491C13.9491 23.9491 17.2075 20.6927 17.2075 16.6754V8.64516H17.2073ZM18.6287 4.67513C17.8385 3.8122 17.3196 2.69702 17.2073 1.46414V0.958008H16.1154C16.3902 2.52499 17.3277 3.86373 18.6287 4.67513ZM7.26859 18.6781C6.82706 18.0995 6.58845 17.3917 6.58952 16.6639C6.58952 14.8266 8.07982 13.3368 9.91845 13.3368C10.2611 13.3367 10.6017 13.3892 10.9283 13.4927V9.46971C10.5466 9.41743 10.1615 9.39524 9.77651 9.40338V12.5347C9.44971 12.4312 9.10895 12.3786 8.76621 12.3789C6.92758 12.3789 5.43736 13.8684 5.43736 15.706C5.43736 17.0053 6.18226 18.1302 7.26859 18.6781Z" fill="white"/>
<path d="M16.0549 7.68705C17.6017 8.79179 19.4958 9.44184 21.5417 9.44184V6.34436C20.3997 6.10124 19.3887 5.50478 18.6286 4.67513C17.3275 3.86365 16.3901 2.52491 16.1153 0.958008H13.2471V16.6752C13.2406 18.5075 11.7529 19.9912 9.91818 19.9912C8.83703 19.9912 7.87654 19.4761 7.26823 18.6781C6.18199 18.1302 5.43708 17.0052 5.43708 15.7061C5.43708 13.8687 6.9273 12.379 8.76593 12.379C9.11821 12.379 9.45774 12.4338 9.77623 12.5348V9.40346C5.82782 9.48499 2.65234 12.7095 2.65234 16.6753C2.65234 18.655 3.44311 20.4496 4.72654 21.7609C5.88437 22.538 7.27818 22.9912 8.77777 22.9912C12.7969 22.9912 16.055 19.7346 16.055 15.7175V7.68705H16.0549Z" fill="black"/>
<path d="M21.5415 6.34436V5.50683C20.5117 5.50839 19.5021 5.22014 18.6284 4.67505C19.4019 5.52138 20.4203 6.10494 21.5415 6.34436ZM16.1151 0.958006C16.0889 0.808253 16.0687 0.657513 16.0548 0.506198V6.10352e-05H12.0946V15.7174C12.0883 17.5495 10.6006 19.0331 8.76575 19.0331C8.22707 19.0331 7.71847 18.9053 7.26805 18.6782C7.87636 19.4761 8.83685 19.9911 9.918 19.9911C11.7525 19.9911 13.2405 18.5076 13.2469 16.6753V0.958006H16.1151ZM9.77622 9.40346V8.51184C9.44531 8.46664 9.1117 8.44395 8.77767 8.44412C4.75825 8.44403 1.5 11.7006 1.5 15.7174C1.5 18.2358 2.78055 20.4552 4.72644 21.7607C3.44301 20.4495 2.65225 18.6548 2.65225 16.6752C2.65225 12.7095 5.82764 9.48499 9.77622 9.40346Z" fill="black"/>
</g>
<defs>
<clipPath id="clip0_607_3144">
<rect width="24" height="24" fill="white"/>
</clipPath>
</defs>
</svg>